<svg xmlns="http://www.w3.org/2000/svg" viewBox="0 0 197.84 28.27"><defs><style>.cls-1{fill:#222221;}</style></defs><title>Asset 2</title><g id="Layer_2" data-name="Layer 2"><g id="OBJECTS"><path class="cls-1" d="M119.39,2.09c-2.76,10.41-16,13.5-25.21,15a80.87,80.87,0,0,1-32-1.28,10,10,0,0,0-.65-4.49c-1.45-3.42-4.93-5.14-8.13-6.59-.38-.17-1,0-1,.54a14.91,14.91,0,0,0,4.69,9.22c-2.94-.81-6.06-1.71-9.28-2.51-.2-4.75-4.38-8.78-8.83-9.8a.67.67,0,0,0-.83.63A10.2,10.2,0,0,0,41,10.54a54.38,54.38,0,0,0-9.52-.91,9.85,9.85,0,0,0-4-7.56A10,10,0,0,0,23.63.28C22.76.09,21.09-.3,20.37.4,18.93,1.8,22,5.7,22.94,6.69a13.23,13.23,0,0,0,4.45,3.19,24.49,24.49,0,0,0-9.83,3.23C16.5,7.58,9.4,7.63,4.85,8.39c-.55.09-.57.77-.29,1.12A13.63,13.63,0,0,0,15.14,14.8a23.54,23.54,0,0,0-3.31,3.25c-.52.63.31,1.51.91.91a28.59,28.59,0,0,1,2.14-1.9,9.76,9.76,0,0,0-.33,4.34c.2,1.3,1.08,5,2.92,5s2.79-3.59,3.05-5a10.89,10.89,0,0,0-1.13-7.3,26.22,26.22,0,0,1,8-2.51,15,15,0,0,0-4.45,11.29.67.67,0,0,0,1,.57c4.37-2.25,8-7.13,7.83-12.21a52.49,52.49,0,0,1,10.26,1,12.6,12.6,0,0,0-7.43,6.23.69.69,0,0,0,.4,1,8.48,8.48,0,0,0,.83.22c-.11.2.13.49.36.34l.32-.22a10.35,10.35,0,0,0,11.08-6.38c3.29.79,6.58,1.71,9.85,2.59a7.16,7.16,0,0,0-6.57,7.09.7.7,0,0,0,.68.69,10,10,0,0,0,10.27-6.57l0,0a77.46,77.46,0,0,0,13.46,2.5,76.91,76.91,0,0,0,30.38-3.74c6.67-2.32,13.06-6.27,14.63-13.58A.47.47,0,0,0,119.39,2.09ZM6.67,9.82a29.13,29.13,0,0,1,8.06,3.84A13.5,13.5,0,0,1,6.67,9.82Zm.9-.42c3.74-.31,8.28.15,8.83,4.4l-.45,0a.32.32,0,0,0-.11-.31A20.15,20.15,0,0,0,7.57,9.4Zm8.06,10.4a9.55,9.55,0,0,1,.81-3.92l.14-.09c.28,2.88.54,5.72.64,8.61C16,24,15.65,20.63,15.63,19.8Zm3.81-.67c0,1.17-.16,4.36-1.28,5.1a1.59,1.59,0,0,1-.3.14,28.81,28.81,0,0,0-.25-9.22c.22-.14.44-.3.67-.43A10.62,10.62,0,0,1,19.44,19.13ZM27.25,3.49a8.83,8.83,0,0,1,3,6.17h-.23a54,54,0,0,0-8.23-8.4C23.06.85,26.55,2.89,27.25,3.49ZM25.19,7.27A13,13,0,0,1,23,4.86,10.07,10.07,0,0,1,21.4,2a97.24,97.24,0,0,1,6.69,7.09A12,12,0,0,1,25.19,7.27Zm.29,13.6a42.73,42.73,0,0,1,4.15-8.75c.31-.49-.46-.93-.77-.45a31.07,31.07,0,0,0-4.18,9.78c-.13.09-.25.19-.38.27.2-4,2-7.32,4.73-10.32l1.33-.1C29.88,15.16,28.43,18.5,25.48,20.87ZM39.67,5.28c1.28,2,2.6,3.91,4,5.79L43.14,11A9.64,9.64,0,0,1,39.67,5.28ZM37.15,18.49c-.32,0-.65-.08-1-.14a10.87,10.87,0,0,1,7.64-5.09C41.55,14.94,39.32,16.68,37.15,18.49Zm1.21,0c2.35-1.62,4.65-3.34,6.9-5.08a.43.43,0,0,0,.14-.24.48.48,0,0,0,.53-.18l.27.06A8.92,8.92,0,0,1,38.36,18.51Zm6.88-7.1C43.48,8.8,41.5,6.28,39.51,3.85c0-.05,0-.1,0-.15,3.83,1.18,6.06,4.22,7.06,8ZM54,6.85a15.57,15.57,0,0,1,4.71,7.61A14.34,14.34,0,0,1,54,6.85ZM52.27,22.42a6.57,6.57,0,0,1,5.93-5.6c0,.05,0,.1,0,.14q-2.8,2.41-5.51,4.94a.28.28,0,0,0,.18.49C52.68,22.4,52.48,22.42,52.27,22.42Zm.74,0a.24.24,0,0,0,.11-.06c1.83-1.43,3.63-2.92,5.4-4.43a1.51,1.51,0,0,0,1.12.63A8.56,8.56,0,0,1,53,22.38Zm7.8-7.93c0,.07,0,.28-.08.52a1.91,1.91,0,0,0-.89,0c-.33-3.28-2.57-6.32-5.22-8.24a13.46,13.46,0,0,1,4.67,3.42A6.35,6.35,0,0,1,60.81,14.45Z"/><path class="cls-1" d="M11.57,19.1a.6.6,0,0,0-.66-.46.42.42,0,0,0-.37-.23C5.14,18.05.7,22.39,0,27.58c-.07.5.5.74.9.68C5.35,27.56,13.11,25.26,11.57,19.1Zm-2,.3A89.26,89.26,0,0,0,2,25.46,10.12,10.12,0,0,1,9.55,19.4Zm-8,7.3c0-.11.06-.22.09-.33a91.1,91.1,0,0,0,8.6-6.64C10.07,24.47,5.68,25.94,1.59,26.7Z"/><path class="cls-1" d="M81.92,2.34c1.57,7.31,8,11.26,14.63,13.58a76.86,76.86,0,0,0,30.37,3.74,77.39,77.39,0,0,0,13.47-2.5l0,0a10,10,0,0,0,10.26,6.57.7.7,0,0,0,.69-.69A7.16,7.16,0,0,0,144.79,16c3.26-.88,6.56-1.8,9.85-2.59a10.35,10.35,0,0,0,11.07,6.38L166,20c.23.15.47-.14.36-.34a7.62,7.62,0,0,0,.82-.22.68.68,0,0,0,.41-1,12.59,12.59,0,0,0-7.44-6.23,52.64,52.64,0,0,1,10.26-1c-.15,5.08,3.47,10,7.84,12.21a.67.67,0,0,0,1-.57,15,15,0,0,0-4.45-11.29,26.22,26.22,0,0,1,8,2.51,10.83,10.83,0,0,0-1.13,7.3c.26,1.37,1.15,5,3.05,5s2.72-3.67,2.91-5a9.62,9.62,0,0,0-.33-4.34,26.84,26.84,0,0,1,2.15,1.9c.6.6,1.43-.28.91-.91a23.54,23.54,0,0,0-3.31-3.25,13.65,13.65,0,0,0,10.58-5.29c.28-.35.26-1-.3-1.12-4.55-.76-11.64-.81-12.7,4.72a24.49,24.49,0,0,0-9.84-3.23,13.13,13.13,0,0,0,4.45-3.19c.91-1,4-4.89,2.58-6.29-.72-.7-2.39-.31-3.26-.12a10.17,10.17,0,0,0-7.87,9.35,54.35,54.35,0,0,0-9.51.91A10.19,10.19,0,0,0,164,2.84a.66.66,0,0,0-.82-.63c-4.45,1-8.64,5.05-8.83,9.8-3.22.8-6.34,1.7-9.28,2.51a14.91,14.91,0,0,0,4.69-9.22c.06-.53-.57-.71-.95-.54-3.2,1.45-6.68,3.17-8.13,6.59a9.84,9.84,0,0,0-.65,4.49,80.87,80.87,0,0,1-32,1.28c-9.2-1.53-22.45-4.62-25.22-15C82.67,1.5,81.8,1.75,81.92,2.34ZM187.48,13.66a29.19,29.19,0,0,1,8.07-3.84A13.52,13.52,0,0,1,187.48,13.66Zm-1.1-.21a.32.32,0,0,0-.11.31l-.45,0c.55-4.25,5.09-4.71,8.82-4.4A20.17,20.17,0,0,0,186.38,13.45ZM185,24.4c.11-2.89.36-5.73.65-8.61a.67.67,0,0,0,.14.09,9.39,9.39,0,0,1,.8,3.92C186.57,20.63,186.22,24,185,24.4Zm-1.05-9.68c.22.13.45.29.67.43a29.1,29.1,0,0,0-.26,9.22,1.53,1.53,0,0,1-.29-.14c-1.12-.74-1.31-3.93-1.28-5.1A10.47,10.47,0,0,1,183.94,14.72ZM180.4,1.27a54,54,0,0,0-8.23,8.4h-.23a8.83,8.83,0,0,1,3-6.17C175.67,2.89,179.15.85,180.4,1.27Zm-6.27,7.78c2.11-2.48,4.33-4.82,6.68-7.09a9.61,9.61,0,0,1-1.58,2.9A12.64,12.64,0,0,1,177,7.27,11.74,11.74,0,0,1,174.13,9.05Zm-2.27,2.25,1.33.1c2.7,3,4.52,6.27,4.73,10.32-.13-.08-.25-.18-.38-.27a31.07,31.07,0,0,0-4.18-9.78c-.31-.48-1.08,0-.77.45a43.26,43.26,0,0,1,4.15,8.75C173.78,18.5,172.34,15.16,171.86,11.3ZM159.08,11l-.54.12c1.41-1.88,2.73-3.83,4-5.79A9.64,9.64,0,0,1,159.08,11Zm-.67,2.31A10.86,10.86,0,0,1,166,18.35c-.32.06-.65.11-1,.14C162.9,16.68,160.66,14.94,158.41,13.26ZM156,13.07l.26-.06a.5.5,0,0,0,.54.18.43.43,0,0,0,.14.24c2.25,1.74,4.55,3.46,6.9,5.08A8.9,8.9,0,0,1,156,13.07Zm-.36-1.37c1-3.78,3.23-6.82,7.06-8,0,0,0,.1,0,.15-2,2.43-4,5-5.74,7.56Zm-12.15,2.76a15.5,15.5,0,0,1,4.71-7.61A14.34,14.34,0,0,1,143.51,14.46Zm5.83,7.93a.28.28,0,0,0,.18-.49Q146.82,19.38,144,17a.65.65,0,0,0,0-.14,6.58,6.58,0,0,1,5.94,5.6C149.74,22.42,149.54,22.4,149.34,22.39Zm-6.76-3.87a1.51,1.51,0,0,0,1.12-.63c1.77,1.51,3.57,3,5.39,4.43a.34.34,0,0,0,.12.06A8.56,8.56,0,0,1,142.58,18.52Zm.35-8.37a13.46,13.46,0,0,1,4.67-3.42A12.27,12.27,0,0,0,142.38,15a1.91,1.91,0,0,0-.89,0c0-.24-.08-.45-.08-.52A6.35,6.35,0,0,1,142.93,10.15Z"/></g></g></svg>