<svg xmlns="http://www.w3.org/2000/svg" viewBox="0 0 217.61 31.49"><defs><style>.cls-1{fill:#222221;}</style></defs><title>Asset 1</title><g id="Layer_2" data-name="Layer 2"><g id="OBJECTS"><path class="cls-1" d="M31.1,10.42a31.77,31.77,0,0,0-2.71,4.48.29.29,0,0,0,.49.29,31.34,31.34,0,0,0,2.84-4.3C31.9,10.52,31.4,10.05,31.1,10.42Z"/><path class="cls-1" d="M85,17.57c-.42,4.62-3.57,6.25-7.22,6.41a10.05,10.05,0,0,0-6.66-9,.53.53,0,0,0-.66.37,8.88,8.88,0,0,0,2.7,8.15A23.05,23.05,0,0,1,68,21.73a36.7,36.7,0,0,1-8.31-6.43c-1-.93-2-1.86-3-2.76a.24.24,0,0,0,0-.08.49.49,0,0,0,.85-.16C59,7.57,55.47,2.23,51.41.11a.63.63,0,0,0-.92.37A12,12,0,0,0,52.13,9a20.28,20.28,0,0,0-6-2.65,21.21,21.21,0,0,0-3.7-.56.63.63,0,0,0-.07-.7A14.08,14.08,0,0,0,29.07.2a.65.65,0,0,0-.39,1A12.19,12.19,0,0,0,35.13,6.5a22.09,22.09,0,0,0-9.07,4.86c-3.41-2.18-7.84-.8-11.37.56a.52.52,0,0,0-.12.94,8,8,0,0,0,8.37,1c-3.11,3.79-7.38,6.43-12.55,6-3.73-.31-7.66-2.47-8.61-6.37C.3,7.36,9.3,2.27,11.53,9.82a.56.56,0,0,0,1.07-.3C10.68-.22-3.2,6.1.68,15.18,4,22.94,13.2,22.74,19.6,18.83a18.79,18.79,0,0,0-2.16,9.68.51.51,0,0,0,.65.49,7.07,7.07,0,0,0,4.79-5.71,10.39,10.39,0,0,0,9.65,6.79c3.78,0,8.23-1.78,9.63-5.59A6,6,0,0,0,39,16.71c-.59-.24-1,.73-.43,1,3.86,2.06,3.05,6.9-.21,9.1a10.3,10.3,0,0,1-10.17.67c-4.8-2.67-5-8.46-3.44-13a23,23,0,0,1,2.87-2.54,7.58,7.58,0,0,0,.65,8.76.51.51,0,0,0,.79-.1c2.21-3.13,3.91-7,3.77-10.94a.47.47,0,0,0-.54-.41,21.58,21.58,0,0,1,9.81-1.72c5.81.34,9.92,3.36,13.86,6.85a16.23,16.23,0,0,0-10.13-.19c-.4.12-.66.73-.28,1,3.86,3,9.29,4.47,14,2.68a.71.71,0,0,0,.17-.11c.72.65,1.45,1.29,2.19,1.91a29.39,29.39,0,0,0,6.18,4,14,14,0,0,0-10.66,4,.63.63,0,0,0,.28,1c4.81,1.45,10.56.24,13.86-3.69a19.78,19.78,0,0,0,4,.7l.06.12a.42.42,0,0,0,.75-.1,13.71,13.71,0,0,0,1.43,0c4.68-.32,8.63-3.16,8.53-8.11A.66.66,0,0,0,85,17.57ZM22,22.65a6.12,6.12,0,0,1-3.52,5.08,20.4,20.4,0,0,1,2.77-10c.25-.19.5-.39.74-.6a.42.42,0,0,0,.27.09c0,.18,0,.36-.07.54a.4.4,0,0,0-.38.29,34.66,34.66,0,0,0-1.27,4.56c-.06.28.36.51.49.21.41-1,.76-2,1.08-3a11.1,11.1,0,0,0,.4,2.36A.52.52,0,0,0,22,22.65Zm2.75-10a.75.75,0,0,0-.43-.13A.35.35,0,0,0,24,12.3a32.44,32.44,0,0,0-4.18.13.23.23,0,0,0,0,.45C20.9,13,22,13,23.12,13a7.71,7.71,0,0,1-7.18-.48c3.09-1.11,6.33-1.93,9.36-.46C25.11,12.27,24.92,12.45,24.74,12.65Zm3.87,6.79c-2.32-3.77-.71-8,3.36-9.84A22,22,0,0,1,28.61,19.44ZM40.15,5.76a.34.34,0,0,0-.24-.47,23.5,23.5,0,0,1-6.07-2.21.19.19,0,0,0-.19.34A18.56,18.56,0,0,0,39,5.83c-.42,0-.84.07-1.25.13a11.12,11.12,0,0,1-7.39-4.64,13.06,13.06,0,0,1,11,4.42C41,5.73,40.55,5.75,40.15,5.76Zm12.4,0c.84,1.77,1.63,3.62,2.54,5.38-.2-.17-.4-.34-.61-.5a12,12,0,0,1-2.89-9c3.8,2.35,4.87,6.15,5,10.52,0,0,0,.06,0,.09-1-2.32-2.35-4.52-3.57-6.73C52.85,5.22,52.41,5.49,52.55,5.8Zm-5.11,9.25a15.87,15.87,0,0,1,9.31.77,23.8,23.8,0,0,1-5.38-.4c-.29-.06-.41.37-.12.44a18.87,18.87,0,0,0,6.56.63.39.39,0,0,0,.24-.12l.17.07.59.54C54.66,17.65,50.94,17.27,47.44,15.05ZM59.16,27.76a14.47,14.47,0,0,1,9.62-3.22c-1.86.56-3.69,1.26-5.53,1.9a.25.25,0,0,0,.13.48c2-.56,4.09-1.05,6.08-1.72l.09,0A12.36,12.36,0,0,1,59.16,27.76Zm16.56-3.85a27.14,27.14,0,0,0-2.37-4.8.2.2,0,0,0-.37.15,25.7,25.7,0,0,0,1.46,4.15,8.87,8.87,0,0,1-3-7.08A9,9,0,0,1,76.66,24C76.35,24,76,23.93,75.72,23.91Z"/><path class="cls-1" d="M119,16.53a4.07,4.07,0,0,0-2.18-.68c2-1.69,3.13-4,1-6.56-2.2-2.69-5.56-2.35-8.18-.75-1.09-3.4-5.55-5.38-8.75-3.5a4.69,4.69,0,0,0-2,5.68,4.66,4.66,0,0,0-6.59,3.62,4.89,4.89,0,0,0,2.22,4.92,5.7,5.7,0,0,0,2.9.8,4.84,4.84,0,0,0-.12,6.64,5.79,5.79,0,0,0,8.24.3,5.34,5.34,0,0,0,5.55,4.47,5.61,5.61,0,0,0,4.9-7.5,4.62,4.62,0,0,0,4.45-3.14A3.86,3.86,0,0,0,119,16.53ZM110,10.11c0-.13,0-.26,0-.39,2.23-1.23,4.94-1.88,6.83.32,2.28,2.65-.29,4.72-2.56,6a7.24,7.24,0,0,0-1-2.84c.88-.28,1.78-.54,2.64-.87.41-.15.23-.81-.18-.66-.91.35-1.8.77-2.7,1.15a6.18,6.18,0,0,0-2.78-2.13,3.53,3.53,0,0,0-.46-.15A.51.51,0,0,0,110,10.11Zm-7.06-4.45c3-.66,4.5,1.49,5.64,3.72-.27.23-.54.47-.78.72a.35.35,0,0,0-.07.12,8.24,8.24,0,0,0-3.15.51,22.18,22.18,0,0,0-.82-2.7.52.52,0,0,0-1,.28,21.87,21.87,0,0,0,1,2.78,7.41,7.41,0,0,0-1.8,1.27C98.51,11,99.67,6.39,102.93,5.66ZM95.72,18.19a3.37,3.37,0,0,1-1.94-3.39,3.7,3.7,0,0,1,6.4-2.07.37.37,0,0,0,.44.07,3.69,3.69,0,0,0,.62.33,6.08,6.08,0,0,0-1,1.88.69.69,0,0,0,0,.13,4.7,4.7,0,0,1-.9-.15,9.88,9.88,0,0,1-1.79-.8c-.53-.27-1.2.45-.68.89a5.32,5.32,0,0,0,3.21,1.12,6.38,6.38,0,0,0,0,2.18.64.64,0,0,0-.63-.24C98.1,18.43,97.05,18.82,95.72,18.19Zm9.83,7c-1.5,1.93-4,2.94-6.34,1.48a3.8,3.8,0,0,1,1.18-7,7.42,7.42,0,0,0,2.18,3.09A11.67,11.67,0,0,1,100.21,25a.33.33,0,0,0,.33.57,10.61,10.61,0,0,0,2.81-2.21h0a7.86,7.86,0,0,0,2.38,1A7,7,0,0,0,105.55,25.16Zm1-2.22a7,7,0,0,1-2.25-.94.6.6,0,0,0-.62-.44,5.51,5.51,0,0,1-2.35-5.44l.15,0a.45.45,0,0,0,.24-.71,6.52,6.52,0,0,1,7.11-3.44c3.32.73,4.68,4.28,3.73,7.33s-3.21,4.07-5.46,3.77c-.06-.22-.33-.39-.51-.16A.21.21,0,0,0,106.5,22.94Zm8.54,4a4.7,4.7,0,0,1-4,3.23c-2.63.23-4.23-1.91-4.44-4.22a6.93,6.93,0,0,0,.82-1.36,6.67,6.67,0,0,0,2.5-.49,5.7,5.7,0,0,1,.44,2.94c-.08.52.68.77.8.23a6,6,0,0,0-.27-3.64,6.56,6.56,0,0,0,1.65-1.43,3.61,3.61,0,0,0,2,1.55A4.12,4.12,0,0,1,115,26.93Zm4-6.21a3.07,3.07,0,0,1-3.61,1.94,6.28,6.28,0,0,0-1.5-1.69.69.69,0,0,0-.48-.15c0-.08.09-.16.13-.25a7.69,7.69,0,0,0,.34-.91,18,18,0,0,0,3.26,1.42.45.45,0,0,0,.35-.82,19.24,19.24,0,0,0-3.4-1.43,9.91,9.91,0,0,0,.16-1.32c.12-.05.23-.12.35-.18a.5.5,0,0,0,.66.32,3.18,3.18,0,0,1,2.71-.07A2.45,2.45,0,0,1,119.05,20.72Z"/><path class="cls-1" d="M131.33,17.57c-.09,4.95,3.85,7.79,8.53,8.11a13.84,13.84,0,0,0,1.44,0,.42.42,0,0,0,.75.1.61.61,0,0,1,0-.12,19.66,19.66,0,0,0,4-.7c3.31,3.93,9.06,5.14,13.87,3.69a.63.63,0,0,0,.27-1,14,14,0,0,0-10.65-4,29.58,29.58,0,0,0,6.17-4c.75-.62,1.48-1.26,2.19-1.91l.17.11c4.71,1.79,10.14.3,14-2.68.39-.3.13-.91-.27-1a16.23,16.23,0,0,0-10.13.19c3.93-3.49,8-6.51,13.86-6.85a21.54,21.54,0,0,1,9.8,1.72.47.47,0,0,0-.54.41c-.13,3.9,1.57,7.81,3.78,10.94a.5.5,0,0,0,.78.1,7.58,7.58,0,0,0,.66-8.76,23,23,0,0,1,2.87,2.54c1.56,4.58,1.35,10.37-3.45,13a10.3,10.3,0,0,1-10.17-.67c-3.26-2.2-4.06-7-.2-9.1.55-.3.16-1.27-.44-1a6,6,0,0,0-3.18,7.78c1.4,3.81,5.86,5.55,9.64,5.59a10.4,10.4,0,0,0,9.65-6.79A7.07,7.07,0,0,0,199.53,29a.52.52,0,0,0,.65-.49A18.8,18.8,0,0,0,198,18.83c6.4,3.91,15.6,4.11,18.92-3.65,3.89-9.08-10-15.4-11.91-5.66a.55.55,0,0,0,1.06.3c2.23-7.55,11.24-2.46,9.75,3.63-1,3.9-4.87,6.06-8.61,6.37-5.17.42-9.43-2.22-12.55-6a8,8,0,0,0,8.38-1,.52.52,0,0,0-.13-.94c-3.52-1.36-7.95-2.74-11.37-.56a22.05,22.05,0,0,0-9.06-4.86,12.17,12.17,0,0,0,6.44-5.35.64.64,0,0,0-.38-.95,14.09,14.09,0,0,0-13.32,4.89.63.63,0,0,0-.06.7,21.21,21.21,0,0,0-3.7.56,20.17,20.17,0,0,0-6,2.65A12,12,0,0,0,167.12.48a.62.62,0,0,0-.91-.37c-4.07,2.12-7.58,7.46-6.12,12.19a.49.49,0,0,0,.85.16s0,0,0,.08c-1,.9-2,1.83-3,2.76a36.76,36.76,0,0,1-8.32,6.43,22.69,22.69,0,0,1-5.11,1.79,8.89,8.89,0,0,0,2.71-8.15.53.53,0,0,0-.66-.37,10,10,0,0,0-6.66,9c-3.65-.16-6.81-1.79-7.23-6.41A.66.66,0,0,0,131.33,17.57Zm63.78,4.62a11.11,11.11,0,0,0,.41-2.36,29.63,29.63,0,0,0,1.08,3c.13.3.54.07.49-.21A36.32,36.32,0,0,0,195.81,18a.4.4,0,0,0-.38-.29,5,5,0,0,0-.07-.54.47.47,0,0,0,.28-.09c.23.21.48.41.73.6a20.52,20.52,0,0,1,2.78,10,6.15,6.15,0,0,1-3.53-5.08A.52.52,0,0,0,195.11,22.19Zm-2.8-10.1c3-1.47,6.27-.65,9.36.46a7.71,7.71,0,0,1-7.18.48c1.11,0,2.23-.08,3.32-.15a.23.23,0,0,0,0-.45,32.59,32.59,0,0,0-4.19-.13.33.33,0,0,0-.31.22.71.71,0,0,0-.43.13C192.7,12.45,192.5,12.27,192.31,12.09ZM185.65,9.6c4.07,1.82,5.67,6.07,3.35,9.84A21.92,21.92,0,0,1,185.65,9.6Zm-9.38-3.86a13,13,0,0,1,11-4.42A11.1,11.1,0,0,1,179.87,6c-.42-.06-.84-.09-1.26-.13A18.44,18.44,0,0,0,184,3.42a.19.19,0,0,0-.19-.34,23.44,23.44,0,0,1-6.06,2.21.34.34,0,0,0-.25.47C177.06,5.75,176.67,5.73,176.27,5.74ZM164.6,5.53C163.39,7.74,162,9.94,161,12.26a.29.29,0,0,0,0-.09c.11-4.37,1.18-8.17,5-10.52a12,12,0,0,1-2.89,9l-.61.5c.92-1.76,1.7-3.61,2.54-5.38C165.21,5.49,164.77,5.22,164.6,5.53ZM158.81,17l.59-.54.17-.07a.35.35,0,0,0,.24.12,18.89,18.89,0,0,0,6.56-.63c.28-.07.16-.5-.13-.44a23.8,23.8,0,0,1-5.38.4,15.88,15.88,0,0,1,9.31-.77C166.67,17.27,163,17.65,158.81,17Zm-10.75,8.18.09,0c2,.67,4.06,1.16,6.08,1.72a.25.25,0,0,0,.13-.48c-1.83-.64-3.67-1.34-5.53-1.9a14.52,14.52,0,0,1,9.63,3.22A12.38,12.38,0,0,1,148.06,25.16ZM141,24a9,9,0,0,1,5.21-7.65,8.91,8.91,0,0,1-3,7.08,25.76,25.76,0,0,0,1.47-4.15.2.2,0,0,0-.37-.15,27.87,27.87,0,0,0-2.38,4.8C141.58,23.93,141.27,24,141,24Z"/><path class="cls-1" d="M186.51,10.42a31.77,31.77,0,0,1,2.71,4.48c.19.32-.28.58-.49.29a32.22,32.22,0,0,1-2.83-4.3C185.72,10.52,186.21,10.05,186.51,10.42Z"/></g></g></svg>